<svg width="170" height="149" viewBox="0 0 170 149" fill="none" xmlns="http://www.w3.org/2000/svg">
<path d="M32.5912 63.4192L18.1463 38.3758H10.292V63.4192H0V0.810757H21.6673C26.4822 0.810757 30.5448 1.65154 33.8551 3.33311C37.2256 5.01468 39.7234 7.26678 41.3484 10.0894C43.0336 12.912 43.8762 16.065 43.8762 19.5482C43.8762 23.6321 42.6725 27.3555 40.265 30.7187C37.9177 34.0217 34.2764 36.2738 29.3411 37.475L44.8693 63.4192H32.5912ZM10.292 30.1782H21.6673C25.5192 30.1782 28.4082 29.2173 30.3342 27.2955C32.3204 25.3737 33.3134 22.7913 33.3134 19.5482C33.3134 16.3052 32.3505 13.7829 30.4245 11.9812C28.4985 10.1194 25.5794 9.18857 21.6673 9.18857H10.292V30.1782Z" fill="black"/>
<path d="M67.3343 0.810757V63.4192H57.0424V0.810757H67.3343Z" fill="black"/>
<path d="M101.521 64.0498C97.3079 64.0498 93.5161 63.3291 90.1456 61.8877C86.7752 60.3863 84.1269 58.2844 82.201 55.5819C80.275 52.8793 79.312 49.7264 79.312 46.123H90.3262C90.5669 48.8256 91.6202 51.0476 93.486 52.7893C95.412 54.5309 98.0903 55.4017 101.521 55.4017C105.072 55.4017 107.841 54.5609 109.827 52.8793C111.813 51.1377 112.806 48.9156 112.806 46.2131C112.806 44.1112 112.174 42.3996 110.91 41.0783C109.706 39.7571 108.172 38.7361 106.306 38.0155C104.5 37.2948 101.972 36.5141 98.7223 35.6733C94.6295 34.5923 91.2892 33.5113 88.7011 32.4303C86.1733 31.2892 84.0066 29.5476 82.201 27.2054C80.3953 24.8632 79.4925 21.7403 79.4925 17.8366C79.4925 14.2333 80.3953 11.0803 82.201 8.37782C84.0066 5.6753 86.5344 3.60337 89.7845 2.16202C93.0346 0.720674 96.7963 0 101.07 0C107.148 0 112.114 1.53143 115.966 4.59429C119.878 7.59709 122.045 11.741 122.466 17.0259H111.091C110.91 14.7438 109.827 12.7919 107.841 11.1704C105.854 9.54891 103.236 8.73815 99.9862 8.73815C97.037 8.73815 94.6295 9.48885 92.7638 10.9903C90.898 12.4917 89.9651 14.6537 89.9651 17.4763C89.9651 19.3981 90.5368 20.9896 91.6804 22.2508C92.8841 23.4519 94.3888 24.4128 96.1944 25.1335C98 25.8541 100.468 26.6349 103.597 27.4756C107.75 28.6167 111.121 29.7578 113.709 30.8988C116.357 32.0399 118.584 33.8115 120.39 36.2138C122.255 38.556 123.188 41.7089 123.188 45.6726C123.188 48.8556 122.316 51.8584 120.57 54.681C118.885 57.5036 116.387 59.7858 113.077 61.5274C109.827 63.209 105.975 64.0498 101.521 64.0498Z" fill="black"/>
<path d="M145.624 9.09849V27.4756H167.292V35.8535H145.624V55.0414H170V63.4192H135.332V0.720674H170V9.09849H145.624Z" fill="black"/>
<path d="M124.713 143.926C124.713 143.926 109.1 131.825 108.492 131.421C108.492 131.421 106.664 128.437 103.185 126.165C103.185 126.165 98.7053 122.749 97.8657 120.503C97.4161 119.301 97.7799 112.133 97.6039 107.227C97.5894 106.836 97.5298 106.451 97.436 106.071L94.7492 95.1504C94.4215 93.8198 94.6851 92.4136 95.4715 91.2912L102.553 81.181C102.586 81.1504 102.629 81.1351 102.66 81.1L112.36 70.0286C112.813 69.5125 112.785 68.7404 112.298 68.2729C111.817 67.8099 111.052 67.8063 110.551 68.2639L99.6749 78.2038C99.3968 78.4578 89.8028 89.5264 89.8028 89.5264C89.8028 89.5264 83.3811 93.9703 81.58 95.8314C79.4602 98.0232 74.4885 105.751 74.4876 105.752C72.6414 107.915 71.7295 112.105 71.1247 117.231L52.1586 118.265C49.6145 118.404 48.3406 120.467 48.578 122.687C49.1694 128.215 46.4249 144.818 46.4249 144.818C46.2696 146.416 47.3918 147.832 48.931 147.981C50.4234 148.125 51.7704 147.123 51.9852 145.581L54.6846 126.357H73.5631C73.9766 126.357 84.3164 126.683 84.8103 126.941L104.927 137.429C105.144 137.541 121.584 148.455 121.584 148.455C122.435 149.011 123.473 149.154 124.358 148.827C126.413 148.063 126.613 145.335 124.713 143.926ZM86.1735 110.521C87.5927 109.208 89.9698 109.027 91.3041 109.041C91.8648 109.047 92.3225 109.481 92.3667 110.038L93.135 119.656C93.1648 120.025 93.1982 121.466 93.1982 121.466C90.5945 119.787 89.7603 119.338 89.6592 119.261C88.0928 118.081 83.2087 113.265 86.1735 110.521Z" fill="black"/>
<path d="M104.249 103.99C107.775 103.99 110.632 101.139 110.632 97.6214C110.632 94.1039 107.775 91.2524 104.249 91.2524C100.724 91.2524 97.8666 94.1039 97.8666 97.6214C97.8666 101.139 100.724 103.99 104.249 103.99Z" fill="black"/>
</svg>
