<svg width="120" height="120" viewBox="0 0 120 120" fill="none" xmlns="http://www.w3.org/2000/svg">
<g filter="url(#filter0_d_218_163)">
<rect x="40" y="30" width="40" height="40" rx="8" fill="#F7F8F8"/>
</g>
<path d="M55 46C55 44.6739 55.5268 43.4021 56.4645 42.4645C57.4021 41.5268 58.6739 41 60 41C61.3261 41 62.5979 41.5268 63.5355 42.4645C64.4732 43.4021 65 44.6739 65 46C65 47.3261 64.4732 48.5979 63.5355 49.5355C62.5979 50.4732 61.3261 51 60 51C58.6739 51 57.4021 50.4732 56.4645 49.5355C55.5268 48.5979 55 47.3261 55 46V46ZM60 49C60.7956 49 61.5587 48.6839 62.1213 48.1213C62.6839 47.5587 63 46.7956 63 46C63 45.2044 62.6839 44.4413 62.1213 43.8787C61.5587 43.3161 60.7956 43 60 43C59.2044 43 58.4413 43.3161 57.8787 43.8787C57.3161 44.4413 57 45.2044 57 46C57 46.7956 57.3161 47.5587 57.8787 48.1213C58.4413 48.6839 59.2044 49 60 49V49ZM54.343 54.343C53.6001 55.0859 53.0109 55.9678 52.6089 56.9385C52.2069 57.9091 52 58.9494 52 60H54C54 58.4087 54.6321 56.8826 55.7574 55.7574C56.8826 54.6321 58.4087 54 60 54C61.5913 54 63.1174 54.6321 64.2426 55.7574C65.3679 56.8826 66 58.4087 66 60H68C68.0001 58.4177 67.5309 56.8709 66.6518 55.5553C65.7728 54.2396 64.5234 53.2142 63.0615 52.6087C61.5997 52.0032 59.9911 51.8447 58.4392 52.1534C56.8873 52.4621 55.4618 53.2241 54.343 54.343V54.343Z" fill="black"/>
<defs>
<filter id="filter0_d_218_163" x="0" y="0" width="120" height="120" filterUnits="userSpaceOnUse" color-interpolation-filters="sRGB">
<feFlood flood-opacity="0" result="BackgroundImageFix"/>
<feColorMatrix in="SourceAlpha" type="matrix" values="0 0 0 0 0 0 0 0 0 0 0 0 0 0 0 0 0 0 127 0" result="hardAlpha"/>
<feOffset dy="10"/>
<feGaussianBlur stdDeviation="20"/>
<feColorMatrix type="matrix" values="0 0 0 0 0.113725 0 0 0 0 0.0862745 0 0 0 0 0.0901961 0 0 0 0.07 0"/>
<feBlend mode="normal" in2="BackgroundImageFix" result="effect1_dropShadow_218_163"/>
<feBlend mode="normal" in="SourceGraphic" in2="effect1_dropShadow_218_163" result="shape"/>
</filter>
</defs>
</svg>
