<svg width="28" height="30" viewBox="0 0 28 30" fill="none" xmlns="http://www.w3.org/2000/svg">
<path d="M13.5063 23.9121C12.975 24.5098 12.025 24.5098 11.4375 23.9121L7.4375 20.1621C6.85625 19.6641 6.85625 18.7734 7.4375 18.2227C8.025 17.6777 8.975 17.6777 9.50625 18.2227L12.5 20.9824L18.4375 15.4102C19.025 14.8652 19.975 14.8652 20.5063 15.4102C21.1438 15.9609 21.1438 16.8516 20.5063 17.3496L13.5063 23.9121ZM8 0C8.83125 0 9.5 0.629883 9.5 1.40625V3.75H18.5V1.40625C18.5 0.629883 19.1687 0 20 0C20.8313 0 21.5 0.629883 21.5 1.40625V3.75H24C26.2062 3.75 28 5.42871 28 7.5V26.25C28 28.3184 26.2062 30 24 30H4C1.79063 30 0 28.3184 0 26.25V7.5C0 5.42871 1.79063 3.75 4 3.75H6.5V1.40625C6.5 0.629883 7.16875 0 8 0ZM25 11.25H3V26.25C3 26.7656 3.4475 27.1875 4 27.1875H24C24.55 27.1875 25 26.7656 25 26.25V11.25Z" fill="black" fill-opacity="0.5"/>
</svg>
