<svg width="30" height="30" viewBox="0 0 30 30" fill="none" xmlns="http://www.w3.org/2000/svg">
<path d="M15.8875 2.86242C15.7713 2.74526 15.633 2.65227 15.4807 2.58881C15.3284 2.52535 15.165 2.49268 15 2.49268C14.835 2.49268 14.6716 2.52535 14.5193 2.58881C14.3669 2.65227 14.2287 2.74526 14.1125 2.86242L2.86248 14.1124C2.74532 14.2286 2.65233 14.3669 2.58887 14.5192C2.52541 14.6715 2.49274 14.8349 2.49274 14.9999C2.49274 15.1649 2.52541 15.3283 2.58887 15.4806C2.65233 15.633 2.74532 15.7712 2.86248 15.8874C2.97928 16.0033 3.1178 16.0949 3.2701 16.1571C3.4224 16.2193 3.58548 16.2509 3.74998 16.2499H4.99998V24.9999C4.99998 25.663 5.26338 26.2988 5.73222 26.7677C6.20106 27.2365 6.83694 27.4999 7.49998 27.4999H22.5C23.163 27.4999 23.7989 27.2365 24.2678 26.7677C24.7366 26.2988 25 25.663 25 24.9999V16.2499H26.25C26.5815 16.2499 26.8994 16.1182 27.1339 15.8838C27.3683 15.6494 27.5 15.3314 27.5 14.9999C27.5009 14.8354 27.4694 14.6723 27.4072 14.52C27.345 14.3677 27.2533 14.2292 27.1375 14.1124L15.8875 2.86242ZM7.49998 24.9999V13.0124L15 5.51242L22.5 13.0124V24.9999H7.49998Z" fill="black" fill-opacity="0.5"/>
</svg>
