<svg width="44" height="26" viewBox="0 0 44 26" fill="none" xmlns="http://www.w3.org/2000/svg">
<path d="M39.6083 24.6083L25.1417 14.925C24.4417 14.4583 24.0917 13.8167 24.0917 13C24.0917 12.1833 24.4417 11.5417 25.1417 11.075L39.6083 1.39166C40.3861 0.886107 41.1833 0.856551 42 1.303C42.8167 1.751 43.225 2.44166 43.225 3.375V22.625C43.225 23.5583 42.8167 24.2583 42 24.725C41.1833 25.1917 40.3861 25.1528 39.6083 24.6083V24.6083ZM16.275 24.6083L1.80833 14.925C1.10833 14.4583 0.758331 13.8167 0.758331 13C0.758331 12.1833 1.10833 11.5417 1.80833 11.075L16.275 1.39166C17.0528 0.886107 17.85 0.856551 18.6667 1.303C19.4833 1.751 19.8917 2.44166 19.8917 3.375V22.625C19.8917 23.5583 19.4833 24.2583 18.6667 24.725C17.85 25.1917 17.0528 25.1528 16.275 24.6083V24.6083Z" fill="white" fill-opacity="0.6"/>
</svg>
