<svg width="20" height="20" viewBox="0 0 20 20" fill="none" xmlns="http://www.w3.org/2000/svg">
<path d="M2.34442 12.8889L1.28887 17.4444C1.25245 17.6109 1.2537 17.7835 1.29252 17.9495C1.33134 18.1155 1.40675 18.2707 1.51323 18.4038C1.61972 18.5369 1.7546 18.6446 1.90802 18.7189C2.06144 18.7932 2.22952 18.8323 2.39998 18.8333C2.47941 18.8413 2.55944 18.8413 2.63887 18.8333L7.2222 17.7778L16.0222 9.01108L11.1111 4.11108L2.34442 12.8889Z" fill="black"/>
<path d="M18.7889 4.62219L15.5111 1.34441C15.2956 1.13001 15.004 1.00964 14.7 1.00964C14.396 1.00964 14.1044 1.13001 13.8889 1.34441L12.0667 3.16664L16.9722 8.07219L18.7944 6.24997C18.9011 6.14279 18.9855 6.01564 19.043 5.87578C19.1004 5.73593 19.1297 5.58612 19.1292 5.43493C19.1287 5.28374 19.0984 5.13413 19.04 4.99467C18.9816 4.85522 18.8962 4.72864 18.7889 4.62219Z" fill="black"/>
</svg>
